<?xml version="1.0" standalone="no"?>
<!DOCTYPE svg PUBLIC "-//W3C//DTD SVG 20010904//EN"
 "http://www.w3.org/TR/2001/REC-SVG-20010904/DTD/svg10.dtd">
<svg version="1.0" xmlns="http://www.w3.org/2000/svg"
 width="230.000000pt" height="230.000000pt" viewBox="0 0 230.000000 230.000000"
 preserveAspectRatio="xMidYMid meet">
<metadata>
Created by potrace 1.11, written by Peter Selinger 2001-2013
</metadata>
<g transform="translate(0.000000,230.000000) scale(0.100000,-0.100000)"
fill="#000000" stroke="none">
<path d="M969 2098 c-13 -4 -51 -12 -84 -19 -109 -21 -120 -27 -170 -89 -63
-82 -125 -238 -125 -320 0 -23 -4 -27 -19 -23 -26 7 -61 -30 -62 -64 0 -16 -4
-68 -8 -118 -8 -96 -7 -99 50 -223 41 -90 99 -171 173 -242 103 -100 140 -118
177 -84 17 15 20 15 45 -1 32 -20 37 6 -70 -315 -47 -140 -91 -273 -98 -295
-10 -32 -18 -41 -40 -43 -14 -2 -29 -10 -32 -18 -3 -9 -1 -12 4 -9 6 3 10 0
11 -7 0 -7 4 -4 8 7 7 16 9 14 14 -13 6 -31 8 -32 57 -32 45 0 52 3 60 26 6
15 14 22 22 18 8 -5 9 5 5 34 -4 34 7 79 63 244 81 239 102 296 116 322 11 18
17 18 104 7 112 -14 294 -6 365 17 28 9 55 17 62 18 21 4 163 93 238 149 39
29 102 86 141 127 38 40 85 85 103 100 35 30 51 71 51 133 0 55 -8 63 -65 70
-58 8 -114 -5 -195 -43 -62 -29 -224 -140 -274 -187 -30 -28 -65 -44 -72 -33
-4 7 25 42 72 87 97 93 154 156 154 171 0 6 5 8 12 4 7 -4 8 -3 4 4 -4 6 0 22
8 34 31 47 58 177 54 257 -3 74 -30 150 -62 176 -6 6 -22 26 -34 46 -35 58
-58 73 -114 75 -35 2 -56 9 -69 22 -27 29 -169 40 -223 18 -21 -9 -46 -16 -55
-16 -9 0 -32 -10 -51 -22 -47 -29 -49 -29 -95 7 -62 48 -100 59 -156 43z"/>
<path d="M539 288 c-6 -24 -5 -59 2 -63 5 -4 9 10 9 29 0 20 -2 36 -5 36 -3 0
-5 -1 -6 -2z"/>
<path d="M230 260 c0 -11 4 -20 9 -20 5 0 7 9 4 20 -3 11 -7 20 -9 20 -2 0 -4
-9 -4 -20z"/>
<path d="M256 272 c-4 -7 -3 -19 2 -28 12 -21 22 -5 12 20 -4 13 -9 16 -14 8z"/>
<path d="M291 264 c-1 -22 34 -40 45 -23 8 14 44 11 44 -3 0 -10 2 -10 8 0 5
7 24 11 50 9 23 -2 42 1 42 6 0 4 -40 7 -90 5 -73 -2 -90 0 -94 12 -2 9 -4 6
-5 -6z"/>
<path d="M902 250 c0 -19 2 -27 5 -17 2 9 2 25 0 35 -3 9 -5 1 -5 -18z"/>
<path d="M922 250 c0 -19 2 -27 5 -17 2 9 2 25 0 35 -3 9 -5 1 -5 -18z"/>
<path d="M569 253 c-8 -9 -9 -14 -2 -10 6 4 14 1 16 -5 4 -9 6 -8 6 2 1 13 2
13 11 0 8 -12 10 -11 10 8 0 26 -22 29 -41 5z"/>
<path d="M160 250 c8 -5 22 -9 30 -9 10 0 8 3 -5 9 -27 12 -43 12 -25 0z"/>
<path d="M941 244 c0 -11 3 -14 6 -6 3 7 2 16 -1 19 -3 4 -6 -2 -5 -13z"/>
</g>
</svg>
